<svg xmlns="http://www.w3.org/2000/svg" viewBox="0 0 1200 500" font-family="system-ui, -apple-system, sans-serif">
  <!-- Background -->
  <rect width="1200" height="500" fill="#ffffff"/>

  <!-- Title -->
  <text x="600.0" y="30" text-anchor="middle" font-size="20" font-weight="600" fill="#1f2937">
    Bundle Size Comparison: Board vs Home Page
  </text>
  <text x="600.0" y="48" text-anchor="middle" font-size="12" fill="#6b7280">
    Raw (uncompressed) JavaScript bundle sizes
  </text>

  <!-- Chart area -->
  <g transform="translate(120, 100)">

    <line x1="0" y1="320.0" x2="1000" y2="320.0" stroke="#e5e7eb" stroke-width="1" stroke-dasharray="4,4"/>
    <text x="-10" y="320.0" text-anchor="end" dominant-baseline="middle" font-size="11" fill="#6b7280">0 kB</text>
    <line x1="0" y1="261.8181818181818" x2="1000" y2="261.8181818181818" stroke="#e5e7eb" stroke-width="1" stroke-dasharray="4,4"/>
    <text x="-10" y="261.8181818181818" text-anchor="end" dominant-baseline="middle" font-size="11" fill="#6b7280">100 kB</text>
    <line x1="0" y1="203.63636363636363" x2="1000" y2="203.63636363636363" stroke="#e5e7eb" stroke-width="1" stroke-dasharray="4,4"/>
    <text x="-10" y="203.63636363636363" text-anchor="end" dominant-baseline="middle" font-size="11" fill="#6b7280">200 kB</text>
    <line x1="0" y1="145.45454545454547" x2="1000" y2="145.45454545454547" stroke="#e5e7eb" stroke-width="1" stroke-dasharray="4,4"/>
    <text x="-10" y="145.45454545454547" text-anchor="end" dominant-baseline="middle" font-size="11" fill="#6b7280">300 kB</text>
    <line x1="0" y1="87.27272727272725" x2="1000" y2="87.27272727272725" stroke="#e5e7eb" stroke-width="1" stroke-dasharray="4,4"/>
    <text x="-10" y="87.27272727272725" text-anchor="end" dominant-baseline="middle" font-size="11" fill="#6b7280">400 kB</text>
    <line x1="0" y1="29.090909090909122" x2="1000" y2="29.090909090909122" stroke="#e5e7eb" stroke-width="1" stroke-dasharray="4,4"/>
    <text x="-10" y="29.090909090909122" text-anchor="end" dominant-baseline="middle" font-size="11" fill="#6b7280">500 kB</text>

    <rect x="5.0" y="306.2795454545454" width="25.0" height="13.720454545454546" fill="#3b82f6" opacity="0.8" rx="3"/>
    <text x="17.5" y="301.2795454545454" text-anchor="middle" font-size="10" font-weight="600" fill="#1f2937">24</text>
    <rect x="35.0" y="306.2795454545454" width="25.0" height="13.720454545454546" fill="#10b981" opacity="0.8" rx="3"/>
    <text x="47.5" y="301.2795454545454" text-anchor="middle" font-size="10" font-weight="600" fill="#1f2937">24</text>
    <text x="50.0" y="335" text-anchor="end" font-size="11" fill="#374151" transform="rotate(-45, 50.0, 335)">Go-Datastar</text>
    <rect x="105.0" y="306.2795454545454" width="25.0" height="13.720454545454546" fill="#3b82f6" opacity="0.8" rx="3"/>
    <text x="117.5" y="301.2795454545454" text-anchor="middle" font-size="10" font-weight="600" fill="#1f2937">24</text>
    <rect x="135.0" y="306.2795454545454" width="25.0" height="13.720454545454546" fill="#10b981" opacity="0.8" rx="3"/>
    <text x="147.5" y="301.2795454545454" text-anchor="middle" font-size="10" font-weight="600" fill="#1f2937">24</text>
    <text x="150.0" y="335" text-anchor="end" font-size="11" fill="#374151" transform="rotate(-45, 150.0, 335)">Hono-Datastar</text>
    <rect x="205.0" y="268.34318181818185" width="25.0" height="51.65681818181818" fill="#3b82f6" opacity="0.8" rx="3"/>
    <text x="217.5" y="263.34318181818185" text-anchor="middle" font-size="10" font-weight="600" fill="#1f2937">89</text>
    <rect x="235.0" y="312.81306818181815" width="25.0" height="7.186931818181819" fill="#10b981" opacity="0.8" rx="3"/>
    <text x="247.5" y="307.81306818181815" text-anchor="middle" font-size="10" font-weight="600" fill="#1f2937">12</text>
    <text x="250.0" y="335" text-anchor="end" font-size="11" fill="#374151" transform="rotate(-45, 250.0, 335)">Marko</text>
    <rect x="305.0" y="249.53295454545454" width="25.0" height="70.46704545454546" fill="#3b82f6" opacity="0.8" rx="3"/>
    <text x="317.5" y="244.53295454545454" text-anchor="middle" font-size="10" font-weight="600" fill="#1f2937">121</text>
    <rect x="335.0" y="262.1909090909091" width="25.0" height="57.80909090909091" fill="#10b981" opacity="0.8" rx="3"/>
    <text x="347.5" y="257.1909090909091" text-anchor="middle" font-size="10" font-weight="600" fill="#1f2937">99</text>
    <text x="350.0" y="335" text-anchor="end" font-size="11" fill="#374151" transform="rotate(-45, 350.0, 335)">SvelteKit</text>
    <rect x="405.0" y="245.90568181818182" width="25.0" height="74.09431818181818" fill="#3b82f6" opacity="0.8" rx="3"/>
    <text x="417.5" y="240.90568181818182" text-anchor="middle" font-size="10" font-weight="600" fill="#1f2937">127</text>
    <rect x="435.0" y="269.46875" width="25.0" height="50.53125" fill="#10b981" opacity="0.8" rx="3"/>
    <text x="447.5" y="264.46875" text-anchor="middle" font-size="10" font-weight="600" fill="#1f2937">87</text>
    <text x="450.0" y="335" text-anchor="end" font-size="11" fill="#374151" transform="rotate(-45, 450.0, 335)">Astro/HTMX</text>
    <rect x="505.0" y="245.13522727272726" width="25.0" height="74.86477272727272" fill="#3b82f6" opacity="0.8" rx="3"/>
    <text x="517.5" y="240.13522727272726" text-anchor="middle" font-size="10" font-weight="600" fill="#1f2937">129</text>
    <rect x="535.0" y="271.1539772727273" width="25.0" height="48.846022727272725" fill="#10b981" opacity="0.8" rx="3"/>
    <text x="547.5" y="266.1539772727273" text-anchor="middle" font-size="10" font-weight="600" fill="#1f2937">84</text>
    <text x="550.0" y="335" text-anchor="end" font-size="11" fill="#374151" transform="rotate(-45, 550.0, 335)">SolidStart</text>
    <rect x="605.0" y="214.7755681818182" width="25.0" height="105.22443181818181" fill="#3b82f6" opacity="0.8" rx="3"/>
    <text x="617.5" y="209.7755681818182" text-anchor="middle" font-size="10" font-weight="600" fill="#1f2937">181</text>
    <rect x="635.0" y="235.98238636363635" width="25.0" height="84.01761363636365" fill="#10b981" opacity="0.8" rx="3"/>
    <text x="647.5" y="230.98238636363635" text-anchor="middle" font-size="10" font-weight="600" fill="#1f2937">144</text>
    <text x="650.0" y="335" text-anchor="end" font-size="11" fill="#374151" transform="rotate(-45, 650.0, 335)">TanStack Start + Solid</text>
    <rect x="705.0" y="189.1619318181818" width="25.0" height="130.8380681818182" fill="#3b82f6" opacity="0.8" rx="3"/>
    <text x="717.5" y="184.1619318181818" text-anchor="middle" font-size="10" font-weight="600" fill="#1f2937">225</text>
    <rect x="735.0" y="189.1619318181818" width="25.0" height="130.8380681818182" fill="#10b981" opacity="0.8" rx="3"/>
    <text x="747.5" y="184.1619318181818" text-anchor="middle" font-size="10" font-weight="600" fill="#1f2937">225</text>
    <text x="750.0" y="335" text-anchor="end" font-size="11" fill="#374151" transform="rotate(-45, 750.0, 335)">Nuxt</text>
    <rect x="805.0" y="103.22954545454547" width="25.0" height="216.77045454545453" fill="#3b82f6" opacity="0.8" rx="3"/>
    <text x="817.5" y="98.22954545454547" text-anchor="middle" font-size="10" font-weight="600" fill="#1f2937">373</text>
    <rect x="835.0" y="140.60852272727274" width="25.0" height="179.39147727272726" fill="#10b981" opacity="0.8" rx="3"/>
    <text x="847.5" y="135.60852272727274" text-anchor="middle" font-size="10" font-weight="600" fill="#1f2937">308</text>
    <text x="850.0" y="335" text-anchor="end" font-size="11" fill="#374151" transform="rotate(-45, 850.0, 335)">TanStack Start</text>
    <rect x="905.0" y="0.04829545454543904" width="25.0" height="319.95170454545456" fill="#3b82f6" opacity="0.8" rx="3"/>
    <text x="917.5" y="-4.951704545454561" text-anchor="middle" font-size="10" font-weight="600" fill="#1f2937">550</text>
    <rect x="935.0" y="48.3034090909091" width="25.0" height="271.6965909090909" fill="#10b981" opacity="0.8" rx="3"/>
    <text x="947.5" y="43.3034090909091" text-anchor="middle" font-size="10" font-weight="600" fill="#1f2937">467</text>
    <text x="950.0" y="335" text-anchor="end" font-size="11" fill="#374151" transform="rotate(-45, 950.0, 335)">Next.js</text>

    <!-- X-axis -->
    <line x1="0" y1="320" x2="1000" y2="320" stroke="#1f2937" stroke-width="2"/>

    <!-- Y-axis -->
    <line x1="0" y1="0" x2="0" y2="320" stroke="#1f2937" stroke-width="2"/>

  </g>

  <!-- Legend -->
  <rect x="500.0" y="65" width="20" height="15" fill="#3b82f6" opacity="0.8" rx="2"/>
  <text x="525.0" y="77" font-size="11" fill="#374151">Board Page</text>
  <rect x="620.0" y="65" width="20" height="15" fill="#10b981" opacity="0.8" rx="2"/>
  <text x="645.0" y="77" font-size="11" fill="#374151">Home Page</text>
  <!-- Footer note -->
  <text x="600.0" y="490" text-anchor="middle" font-size="10" fill="#9ca3af">
    Generated from Lighthouse measurements • 10 frameworks compared
  </text>
</svg>